<svg xmlns="http://www.w3.org/2000/svg" viewBox="-1.5 -1.5 123 123"><path d="M0 0h120v120H0" fill="#fff"/><g fill="none" stroke="#ccc"><circle cx="30" cy="110" r="10"/><circle cx="60" cy="100" r="10"/><circle cx="100" cy="60" r="10"/><circle cx="110" cy="30" r="10"/><circle cx="60" cy="20" r="10"/><circle cx="30" cy="10" r="10"/><circle cx="10" cy="30" r="10"/><circle cx="80" cy="40" r="10"/><circle cx="60" cy="80" r="10"/><path d="M38.1 104.2l53.8-38.4m11.3-15.3l3.6-11M100.2 28l-30.4-6m-31.2-6.9l32.8 19.8m-54.3 2.2l35.8 35.8"/><path d="M0 60L60 0l60 60-60 60zM0 0l30 30h60m30-30L90 30v60m30 30L90 90H30M0 120l30-30V30" stroke="#000"/></g><path d="M-1.5-1.5h123v123h-123M.5.5v119h119V.5M5 27h11l-1 2H4m1 2h11l-1 2H4m1 50h11l-1 2H4m1 2h11l-1 2H4m11-36h11l-1 2H14m1 6h11l-1 2H14M25 7h11l-1 2H24m1 94h11l-1 2H24m1 6h11l-1 2H24m1 2h11l-1 2H24m11-84h11l-1 2H34m1 2h11l-1 2H34m1 6h11l-1 2H34m21-26h11l-1 2H54m1 54h11l-1 2H54m1 2h11l-1 2H54m1 14h11l-1 2H54m1 2h11l-1 2H54m21-66h11l-1 2H74M85 3h11l-1 2H84m1 10h11l-1 2H84m1 86h11l-1 2H84m1 2h11l-1 2H84m1 2h11l-1 2H84m11-60h11l-1 2H94m1 6h11l-1 2H94m1 2h11l-1 2H94m11-36h11l-1 2h-11m1 54h11l-1 2h-11m1 6h11l-1 2h-11"/><path d="M10 22l2 2-2 2-2-2m2 10l2 2-2 2-2-2m2 54l2 2-4 4 2 2 2-2-4-4m12-36l2 2-2 2-2-2m2 6l2 2-2 2-2-2M30 2l2 2-2 2-2-2m2 6l2 2-4 4 2 2 2-2-4-4m2 94l2 2-2 2-2-2m12-68l2 2-2 2-2-2m22-30l2 2-4 4 2 2 2-2-4-4m2 10l2 2-2 2-2-2m2 46l2 2-2 2-2-2m2 10l2 2-2 2-2-2m2 6l2 2-2 2-2-2m2 10l2 2-2 2-2-2m22-74l2 2-2 2-2-2m2 6l2 2-4 4 2 2 2-2-4-4M90 6l2 2-4 4 2 2 2-2-4-4m2 106l2 2-2 2-2-2m12-60l2 2-2 2-2-2m12-36l2 2-4 4 2 2 2-2-4-4m2 10l2 2-2 2-2-2m2 46l2 2-2 2-2-2m2 6l2 2-2 2-2-2" fill="#d13"/></svg>