<svg xmlns="http://www.w3.org/2000/svg" viewBox="-1.5 -1.5 123 123" width="246" height="246"><path d="M0 0h120v120H0" fill="#fff"/><g fill="none" stroke="#ccc"><circle cx="30" cy="107.57" r="10"/><circle cx="102.43" cy="60" r="10"/><circle cx="107.57" cy="30" r="10"/><circle cx="60" cy="17.57" r="10"/><circle cx="60" cy="102.43" r="10"/><circle cx="60" cy="77.57" r="10"/><circle cx="12.43" cy="30" r="10"/><circle cx="30" cy="12.43" r="10"/><circle cx="77.57" cy="42.43" r="10"/><path d="M38.36 102.08l55.71-36.59m10.05-15.35l1.76-10.28m-7.99-12.39L69.68 20.1M60 92.43v-4.86M52.93 70.5L19.5 37.07m18.96-19.31L69.11 37.1"/><path d="M0 60L60 0l60 60-60 60zM0 0l30 30h60m30-30L90 30v60m30 30L90 90H30M0 120l30-30V30" stroke="#000"/></g><path d="M-1.5-1.5h123v123h-123M.5.5v119h119V.5M12.57 53h11l-1 2h-11m1 6h11l-1 2h-11M7.43 83h11l-1 2h-11m1 2h11l-1 2h-11M25 100.57h11l-1 2H24m1 6h11l-1 2H24m1 2h11l-1 2H24m31-15.14h11l-1 2H54m1 2h11l-1 2H54m31-4.86h11l-1 2H84m1 2h11l-1 2H84m1 2h11l-1 2H84M102.57 87h11l-1 2h-11m1 6h11l-1 2h-11m-4.14-44h11l-1 2h-11m1 6h11l-1 2h-11m1 2h11l-1 2h-11m6.14-36h11l-1 2h-11M85 5.43h11l-1 2H84m1 10h11l-1 2H84m-29-.86h11l-1 2H54M25 9.43h11l-1 2H24M7.43 27h11l-1 2h-11m1 2h11l-1 2h-11m66.14 6.43h11l-1 2h-11m-34.14-6h11l-1 2h-11m1 2h11l-1 2h-11m1 6h11l-1 2h-11M55 74.57h11l-1 2H54m1 2h11l-1 2H54"/><path d="M17.57 56l2 2-2 2-2-2m2 6l2 2-2 2-2-2m-3.14 24l2 2-4 4 2 2 2-2-4-4M30 103.57l2 2-2 2-2-2m32-11.14l2 2-2 2-2-2m2 10l2 2-2 2-2-2m32 3.14l2 2-2 2-2-2M107.57 82l2 2-2 2-2-2m2 6l2 2-2 2-2-2m-3.14-36l2 2-2 2-2-2m7.14-36l2 2-4 4 2 2 2-2-4-4m2 10l2 2-2 2-2-2M90 8.43l2 2-4 4 2 2 2-2-4-4m-28-.86l2 2-4 4 2 2 2-2-4-4m2 10l2 2-2 2-2-2M30 4.43l2 2-2 2-2-2m2 6l2 2-4 4 2 2 2-2-4-4M12.43 22l2 2-2 2-2-2m2 10l2 2-2 2-2-2m67.14-1.57l2 2-2 2-2-2m2 6l2 2-4 4 2 2 2-2-4-4m-33.14-2l2 2-2 2-2-2M60 69.57l2 2-2 2-2-2m2 10l2 2-2 2-2-2" fill="#d22"/></svg>