<svg xmlns="http://www.w3.org/2000/svg" viewBox="-1.5 -1.5 123 123"><path d="M0 0h120v120H0" fill="#fff"/><g fill="none" stroke="#ccc"><circle cx="20" cy="60" r="10"/><circle cx="10" cy="90" r="10"/><circle cx="30" cy="110" r="10"/><circle cx="60" cy="100" r="10"/><circle cx="90" cy="110" r="10"/><circle cx="110" cy="90" r="10"/><circle cx="100" cy="60" r="10"/><circle cx="110" cy="30" r="10"/><circle cx="90" cy="10" r="10"/><circle cx="10" cy="30" r="10"/><circle cx="80" cy="40" r="10"/><circle cx="40" cy="40" r="10"/><path d="M30 60h60M19.7 92.4l60.6 15.2M15.1 81.4l19.8-32.8m62.2 54.3l5.8-5.8M19.5 33.2l11 3.6m9 70l11-3.6m12.7-12.7l13.6-41m26.1-26.6l-5.8-5.8m3.4 16.1l-11 3.6"/></g><path d="M0 60L60 0l60 60-60 60zM0 0l30 30h60m30-30L90 30v60m30 30L90 90H30M0 120l30-30V30" fill="none" stroke="#000"/><path d="M-1.5-1.5h123v123h-123M.5.5v119h119V.5M5 27h11l-1 2H4m1 58h11l-1 2H4m11-36h11l-1 2H14m1 6h11l-1 2H14m11-52h11l-1 2H24m1 2h11l-1 2H24m1 94h11l-1 2H24m11-80h11l-1 2H34m21-22h11l-1 2H54m1 2h11l-1 2H54m1 58h11l-1 2H54m1 6h11l-1 2H54m1 18h11l-1 2H54m21-66h11l-1 2H74m11-28h11l-1 2H84m1 86h11l-1 2H84m11-52h11l-1 2H94m1 6h11l-1 2H94m11-28h11l-1 2h-11m1 50h11l-1 2h-11"/><path d="M10 22l2 2-2 2-2-2m2 6l2 2-4 4 2 2 2-2-4-4m2 50l2 2-2 2-2-2m2 6l2 2-4 4 2 2 2-2-4-4m12-36l2 2-2 2-2-2m2 6l2 2-2 2-2-2M30 2l2 2-4 4 2 2 2-2-4-4m2 98l2 2-4 4 2 2 2-2-4-4m2 10l2 2-2 2-2-2m12-80l2 2-4 4 4 4-2 2-2-2 4-4-4-4m22-18l2 2-4 4 2 2 2-2-4-4m2 50l2 2-2 2-2-2m2 6l2 2-2 2-2-2m2 10l2 2-4 4 4 4-2 2-2-2 4-4-4-4m22-62l2 2-4 4 2 2 2-2-4-4m2 10l2 2-2 2-2-2M90 2l2 2-4 4 4 4-2 2-2-2 4-4-4-4m2 102l2 2-4 4 4 4-2 2-2-2 4-4-4-4m12-52l2 2-2 2-2-2m2 6l2 2-2 2-2-2m12-44l2 2-4 4 4 4-2 2-2-2 4-4-4-4m2 58l2 2-2 2-2-2m2 6l2 2-4 4 2 2 2-2-4-4" fill="#d13"/></svg>