<svg xmlns="http://www.w3.org/2000/svg" viewBox="-1.5 -1.5 123 123" width="246" height="246"><path d="M0 0h120v120H0" fill="#fff"/><g fill="none" stroke="#ccc"><circle cx="30" cy="107.5" r="10"/><circle cx="102.5" cy="60" r="10"/><circle cx="107.5" cy="30" r="10"/><circle cx="60" cy="17.5" r="10"/><circle cx="60" cy="102.5" r="10"/><circle cx="60" cy="77.5" r="10"/><circle cx="12.5" cy="30" r="10"/><circle cx="30" cy="12.5" r="10"/><circle cx="77.5" cy="42.5" r="10"/><path d="M38.4 102l55.7-36.5m10-15.4l1.8-10.2m-8.1-12.4L69.7 20M60 92.5v-5m-7.1-17.1L19.6 37.1m18.9-19.3L69 37.2"/><path d="M0 60L60 0l60 60-60 60zM0 0l30 30h60m30-30L90 30v60m30 30L90 90H30M0 120l30-30V30" stroke="#000"/></g><path d="M-1.5-1.5h123v123h-123M.5.5v119h119V.5M12.5 53h11l-1 2h-11m1 6h11l-1 2h-11m-4 20h11l-1 2h-11m1 2h11l-1 2h-11M25 100.5h11l-1 2H24m1 6h11l-1 2H24m1 2h11l-1 2H24m31-15h11l-1 2H54m1 2h11l-1 2H54m31-5h11l-1 2H84m1 2h11l-1 2H84m1 2h11l-1 2H84M102.5 87h11l-1 2h-11m1 6h11l-1 2h-11m-4-44h11l-1 2h-11m1 6h11l-1 2h-11m1 2h11l-1 2h-11m6-36h11l-1 2h-11M85 5.5h11l-1 2H84m1 10h11l-1 2H84m-29-1h11l-1 2H54m-29-11h11l-1 2H24M7.5 27h11l-1 2h-11m1 2h11l-1 2h-11m66 6.5h11l-1 2h-11m-34-6h11l-1 2h-11m1 2h11l-1 2h-11m1 6h11l-1 2h-11m18.5 25h11l-1 2H54m1 2h11l-1 2H54"/><path d="M17.5 56l2 2-2 2-2-2m2 6l2 2-2 2-2-2m-3 24l2 2-4 4 2 2 2-2-4-4M30 103.5l2 2-2 2-2-2m32-11l2 2-2 2-2-2m2 10l2 2-2 2-2-2m32 3l2 2-2 2-2-2M107.5 82l2 2-2 2-2-2m2 6l2 2-2 2-2-2m-3-36l2 2-2 2-2-2m7-36l2 2-4 4 2 2 2-2-4-4m2 10l2 2-2 2-2-2M90 8.5l2 2-4 4 2 2 2-2-4-4m-28-1l2 2-4 4 2 2 2-2-4-4m2 10l2 2-2 2-2-2m-28-19l2 2-2 2-2-2m2 6l2 2-4 4 2 2 2-2-4-4M12.5 22l2 2-2 2-2-2m2 10l2 2-2 2-2-2m67-1.5l2 2-2 2-2-2m2 6l2 2-4 4 2 2 2-2-4-4m-33-2l2 2-2 2-2-2m19.5 25l2 2-2 2-2-2m2 10l2 2-2 2-2-2" fill="#d22"/></svg>