<svg xmlns="http://www.w3.org/2000/svg" viewBox="0 0 12 16" width="96" height="128"><path d="m2 0 2 2-4 4 4 4-4 4 2 2 2-2-4-4 4-4-4-4m10-2 2 2-4 4 4 4-4 4 2 2 2-2-4-4 4-4-4-4" fill="#aaa"/><circle cx="2" cy="2" r="1" fill="#000"/><circle cx="2" cy="6" r="1" fill="#000"/><circle cx="2" cy="10" r="1" fill="#000"/><circle cx="2" cy="14" r="1" fill="#000"/><circle cx="10" cy="2" r="1" fill="#000"/><circle cx="10" cy="6" r="1" fill="#000"/><circle cx="10" cy="10" r="1" fill="#000"/><circle cx="10" cy="14" r="1" fill="#000"/></svg>
